<svg xmlns="http://www.w3.org/2000/svg" viewBox="0 0 400 700" fill="none">
  <rect width="400" height="700" fill="#f5f5f5" stroke="#ccc" stroke-width="2"/>
  <text x="200" y="40" text-anchor="middle" font-size="18" fill="#333" font-weight="bold">Estaciones de Cocina</text>
  <rect x="20" y="60" width="170" height="100" rx="8" fill="#fff" stroke="#ccc"/>
  <text x="105" y="85" text-anchor="middle" font-size="13" fill="#333" font-weight="bold">Parrilla</text>
  <text x="105" y="105" text-anchor="middle" font-size="11" fill="#666">Tareas: 3</text>
  <text x="105" y="125" text-anchor="middle" font-size="11" fill="#FF9800">Carga: Alta</text>
  <rect x="210" y="60" width="170" height="100" rx="8" fill="#fff" stroke="#ccc"/>
  <text x="295" y="85" text-anchor="middle" font-size="13" fill="#333" font-weight="bold">Horno</text>
  <text x="295" y="105" text-anchor="middle" font-size="11" fill="#666">Tareas: 2</text>
  <text x="295" y="125" text-anchor="middle" font-size="11" fill="#4CAF50">Carga: Media</text>
  <rect x="20" y="170" width="170" height="100" rx="8" fill="#fff" stroke="#ccc"/>
  <text x="105" y="195" text-anchor="middle" font-size="13" fill="#333" font-weight="bold">Barra</text>
  <text x="105" y="215" text-anchor="middle" font-size="11" fill="#666">Tareas: 1</text>
  <text x="105" y="235" text-anchor="middle" font-size="11" fill="#4CAF50">Carga: Baja</text>
  <rect x="210" y="170" width="170" height="100" rx="8" fill="#fff" stroke="#ccc"/>
  <text x="295" y="195" text-anchor="middle" font-size="13" fill="#333" font-weight="bold">Ensaladas</text>
  <text x="295" y="215" text-anchor="middle" font-size="11" fill="#666">Tareas: 2</text>
  <text x="295" y="235" text-anchor="middle" font-size="11" fill="#4CAF50">Carga: Media</text>
  <rect x="20" y="280" width="360" height="60" rx="8" fill="#fff" stroke="#ccc"/>
  <text x="35" y="305" font-size="13" fill="#333" font-weight="bold">Tarea: #0024 - 2 Hamburguesas</text>
  <text x="35" y="325" font-size="11" fill="#888">Estación: Parrilla | Estado: En proceso</text>
  <rect x="20" y="350" width="360" height="60" rx="8" fill="#fff" stroke="#ccc"/>
  <text x="35" y="375" font-size="13" fill="#333" font-weight="bold">Tarea: #0023 - 1 Ensalada</text>
  <text x="35" y="395" font-size="11" fill="#888">Estación: Barra | Estado: Pendiente</text>
  <rect x="20" y="620" width="360" height="50" rx="8" fill="#2196F3"/>
  <text x="200" y="650" text-anchor="middle" font-size="14" fill="#fff" font-weight="bold">+ Nueva Estación</text>
</svg>